# xmcd
# 
# Track frame offsets:
#     183
#     20495
#     34083
#     45358
#     57143
#     70755
#     82568
#     99463
#     116585
#     127925
#     135050
#     147203
#     157903
#     173090
#     186745
# 
# Disc length: 2584
# 
# Revision: 0
# Processed by: cddbd v1.5.2PL0 Copyright (c) Steve Scherf et al.
# Submitted via: BonkEnc v1.0beta4
# 
DISCID=b30a160f
DTITLE=Simon and Garfunkel - Simon and Garfunkel
DYEAR=1981
DGENRE=Pop
TTITLE0=Bridge over troubled water
TTITLE1=The sound of silence
TTITLE2=Cecilia
TTITLE3=Homeward bound
TTITLE4=Scarboraugh fan
TTITLE5=El Condor Pasa
TTITLE6=Mrs. Robinson
TTITLE7=The Boxer
TTITLE8=Keep the customer satisfied
TTITLE9=59 th. Street Bridge Song
TTITLE10=I am a rock
TTITLE11=Wake up little Suzy
TTITLE12=America
TTITLE13=Richard Cory
TTITLE14=Ruby
EXTD=
EXTT0=
EXTT1=
EXTT2=
EXTT3=
EXTT4=
EXTT5=
EXTT6=
EXTT7=
EXTT8=
EXTT9=
EXTT10=
EXTT11=
EXTT12=
EXTT13=
EXTT14=
PLAYORDER=
